<svg xmlns="http://www.w3.org/2000/svg" width="48.37225684096452" height="48.37225684096452" viewBox="0 0 100 100"><defs id="SvgjsDefs1585"></defs><g id="SvgjsG1586" featurekey="symbolContainer" transform="matrix(1,0,0,1,0,0)" fill="#000000">    <rect width="100" height="100"></rect></g><g id="SvgjsG1587" featurekey="monogramFeature-0" transform="matrix(1.5,0,0,1.5,15,-5)" fill="#ffffff"><path d="M42.24 17.4 c0.84 0 1.44 0.42 1.44 1.14 l0 0.24 c0 1.68 -2.7 2.4 -2.7 5.16 l0 33.24 c0 1.8 -1.02 2.82 -2.76 2.82 l-3.42 0 c-1.38 0 -2.22 -0.72 -3.12 -1.98 l-21.42 -28.44 l0 23.82 c0 2.76 2.82 3.54 2.82 5.22 l0 0.24 c0 0.72 -0.6 1.14 -1.5 1.14 l-7.68 0 c-0.9 0 -1.44 -0.42 -1.44 -1.14 l0 -0.24 c0 -1.68 2.4 -2.46 2.4 -5.22 l0 -29.4 c0 -2.76 -2.4 -3.48 -2.4 -5.22 l0 -0.24 c0 -0.72 0.54 -1.14 1.44 -1.14 l8.94 0 c1.5 0 2.34 0.66 3.24 1.92 l19.5 27.12 l0 -22.5 c0 -2.76 -2.64 -3.48 -2.64 -5.16 l0 -0.24 c0 -0.72 0.6 -1.14 1.44 -1.14 l7.86 0 z"></path></g></svg>