<svg xmlns="http://www.w3.org/2000/svg" width="283.40000000000003" height="48.37225684096452" viewBox="0 0 410.1111111111111 70" class="css-1j8o68f"><defs id="SvgjsDefs1585"></defs><g id="SvgjsG1586" featurekey="symbolContainer" transform="matrix(1,0,0,1,0,0)" fill="#fff">    <rect width="79" height="70"></rect></g><g id="SvgjsG1587" featurekey="monogramFeature-0" transform="matrix(0.9434471454678616,0,0,0.9434471454678616,17.679116387194163,-1.4159799712442656)" fill="#000000"><path d="M42.24 17.4 c0.84 0 1.44 0.42 1.44 1.14 l0 0.24 c0 1.68 -2.7 2.4 -2.7 5.16 l0 33.24 c0 1.8 -1.02 2.82 -2.76 2.82 l-3.42 0 c-1.38 0 -2.22 -0.72 -3.12 -1.98 l-21.42 -28.44 l0 23.82 c0 2.76 2.82 3.54 2.82 5.22 l0 0.24 c0 0.72 -0.6 1.14 -1.5 1.14 l-7.68 0 c-0.9 0 -1.44 -0.42 -1.44 -1.14 l0 -0.24 c0 -1.68 2.4 -2.46 2.4 -5.22 l0 -29.4 c0 -2.76 -2.4 -3.48 -2.4 -5.22 l0 -0.24 c0 -0.72 0.54 -1.14 1.44 -1.14 l8.94 0 c1.5 0 2.34 0.66 3.24 1.92 l19.5 27.12 l0 -22.5 c0 -2.76 -2.64 -3.48 -2.64 -5.16 l0 -0.24 c0 -0.72 0.6 -1.14 1.44 -1.14 l7.86 0 z"></path></g><g id="SvgjsG1588" featurekey="nameFeature-0" transform="matrix(1.1146142037602582,0,0,1.1146142037602582,96.45868124178439,5.93672229727461)" fill="#fff"><path d="M13.04 18.88 c4.04 0 7.96 2.6 7.96 9.04 l0 12.08 l-3.28 0 l0 -12 c0 -4.36 -2.28 -6.24 -5.36 -6.24 c-3.72 0 -6.28 3.44 -6.8 5.96 l0 12.28 l-3.28 0 l0 -20.8 l3.28 0 l0 4.84 c0.4 -1.44 2.92 -5.16 7.48 -5.16 z M28.36 11.719999999999999 l0 2.92 l-3.28 0 l0 -2.92 l3.28 0 z M28.36 19.2 l0 20.8 l-3.28 0 l0 -20.8 l3.28 0 z M48 40 l-8.96 -9.28 l-2.84 3 l0 6.28 l-3.28 0 l0 -6.84 l0 -21.44 l3.28 0 l0 17.96 l9.84 -10.48 l3.96 0 l-8.88 9.32 l10.76 11.48 l-3.88 0 z M64.72 18.84 c4.72 0 10.68 3.6 10.68 10.8 s-5.96 10.76 -10.68 10.76 s-10.64 -3.56 -10.64 -10.76 s5.92 -10.8 10.64 -10.8 z M64.72 21.76 c-3.36 0 -7.44 2.6 -7.44 7.88 c0 5.24 4.08 7.84 7.44 7.84 c3.4 0 7.48 -2.6 7.48 -7.84 c0 -5.28 -4.08 -7.88 -7.48 -7.88 z M82.36 11.719999999999999 l0 28.28 l-3.28 0 l0 -28.28 l3.28 0 z M96.48 18.84 c3.68 0 6.52 2.04 7.48 4.28 l0 -3.92 l3.28 0 l0 20.8 l-3.28 0 l0 -4 c-0.96 2.4 -3.8 4.4 -7.48 4.4 c-4.72 0 -10.44 -3.56 -10.44 -10.8 c0 -7.16 5.72 -10.76 10.44 -10.76 z M96.84 21.76 c-3.52 0 -7.6 2.6 -7.6 7.84 c0 5.28 4.08 7.88 7.6 7.88 c3.56 0 7.28 -2.52 7.28 -7.88 c0 -5.32 -3.72 -7.84 -7.28 -7.84 z M112.88 40.2 c-1.32 0 -1.96 -0.64 -1.96 -1.96 s0.64 -1.96 1.96 -1.96 s1.96 0.64 1.96 1.96 s-0.64 1.96 -1.96 1.96 z M143.4 18.88 c3.76 0 7.72 2.36 7.72 9 l0 12.12 l-3.24 0 l0 -12.2 c0 -4.08 -2.16 -6.04 -5.28 -6.04 c-3.52 0 -5.6 2.92 -6.16 5.88 l0 12.36 l-3.24 0 l0 -12.2 c0 -4.08 -2.52 -6.04 -5.32 -6.04 c-3.72 0 -5.64 3.16 -6.08 5.88 l0 12.36 l-3.28 0 l0 -20.8 l3.28 0 l0 4.88 c0.2 -1.48 2.24 -5.2 6.72 -5.2 c2.76 0 6.04 1.56 7.32 5.24 c0.72 -2.16 3.24 -5.24 7.56 -5.24 z M158.48 11.719999999999999 l0 2.92 l-3.28 0 l0 -2.92 l3.28 0 z M158.48 19.2 l0 20.8 l-3.28 0 l0 -20.8 l3.28 0 z M172.48 21.96 l-4.4 0 l0 13.4 c0 1.24 0.48 2 1.68 2 c1.04 0 1.8 -0.24 2.68 -0.64 l0 2.8 c-0.88 0.44 -1.92 0.72 -3.56 0.72 c-2.12 0 -4.04 -0.96 -4.04 -4.6 l0 -13.68 l-2.88 0 l0 -2.76 l2.88 0 l0 -4.88 l3.24 0 l0 4.88 l4.4 0 l0 2.76 z M179.44 11.719999999999999 l0 2.92 l-3.28 0 l0 -2.92 l3.28 0 z M179.44 19.2 l0 20.8 l-3.28 0 l0 -20.8 l3.28 0 z M193.8 18.84 c3.76 0 7.04 1.72 8.84 5.08 l-2.6 1.12 c-1.32 -2.08 -3.44 -3.28 -6.2 -3.28 c-3.44 0 -7.52 2.6 -7.52 7.88 c0 5.24 4.08 7.8 7.52 7.8 c2.76 0 4.88 -1.16 6.2 -3.24 l2.64 1.12 c-1.84 3.36 -5.12 5.04 -8.88 5.04 c-4.76 0 -10.68 -3.52 -10.68 -10.72 s5.92 -10.8 10.68 -10.8 z M207.24 40.2 c-1.32 0 -1.96 -0.64 -1.96 -1.96 s0.64 -1.96 1.96 -1.96 s1.96 0.64 1.96 1.96 s-0.64 1.96 -1.96 1.96 z M229.92 11.719999999999999 l3.28 0 l0 12.36 l0 15.92 l-3.28 0 l0 -4 c-0.96 2.4 -3.8 4.4 -7.48 4.4 c-4.72 0 -10.44 -3.56 -10.44 -10.8 c0 -7.16 5.72 -10.76 10.44 -10.76 c3.68 0 6.52 2.04 7.48 4.28 l0 -11.4 z M222.79999999999998 37.48 c3.56 0 7.28 -2.52 7.28 -7.88 c0 -5.32 -3.72 -7.84 -7.28 -7.84 c-3.52 0 -7.6 2.6 -7.6 7.84 c0 5.28 4.08 7.88 7.6 7.88 z M247.51999999999998 18.84 c4.72 0 11.04 3.6 10.2 11.96 l-17.56 0 c0.52 4.56 4.08 6.8 7.84 6.8 c2.88 0 4.72 -0.8 6.28 -2.32 l1.92 1.76 c-1.88 2.24 -4.6 3.36 -8.24 3.36 c-5.36 0 -11.08 -3.6 -11.08 -10.76 c0 -7.2 5.92 -10.8 10.64 -10.8 z M247.51999999999998 21.68 c-3.08 0 -6.76 2.2 -7.36 6.68 l14.68 0 c-0.4 -4.48 -4.2 -6.68 -7.32 -6.68 z M281.4 19.16 l-9.28 20.84 l-2.64 0 l-9.28 -20.84 l3.28 0 l7.32 16.56 l7.32 -16.56 l3.28 0 z"></path></g></svg>